<svg xmlns="http://www.w3.org/2000/svg" xmlns:xlink="http://www.w3.org/1999/xlink" width="500" zoomAndPan="magnify" viewBox="0 0 375 374.999991" height="500" preserveAspectRatio="xMidYMid meet" version="1.0"><defs><g/><clipPath id="2a90721d55"><path d="M 135 165.613281 L 298.894531 165.613281 L 298.894531 209.386719 L 135 209.386719 Z M 135 165.613281 " clip-rule="nonzero"/></clipPath><clipPath id="8a6a8ce180"><path d="M 167.066406 165.613281 L 292.476562 165.613281 C 294.625 165.613281 296.609375 166.765625 297.675781 168.636719 C 298.742188 170.503906 298.722656 172.796875 297.625 174.648438 L 282.40625 200.351562 C 279.089844 205.953125 273.0625 209.386719 266.554688 209.386719 L 141.144531 209.386719 C 138.996094 209.386719 137.011719 208.234375 135.945312 206.363281 C 134.882812 204.496094 134.898438 202.203125 135.996094 200.351562 L 151.214844 174.648438 C 154.53125 169.046875 160.558594 165.613281 167.066406 165.613281 Z M 167.066406 165.613281 " clip-rule="nonzero"/></clipPath></defs><g clip-path="url(#2a90721d55)"><g clip-path="url(#8a6a8ce180)"><path fill="#38b6ff" d="M 130.644531 165.613281 L 303 165.613281 L 303 209.386719 L 130.644531 209.386719 Z M 130.644531 165.613281 " fill-opacity="1" fill-rule="nonzero"/></g></g><g fill="#000000" fill-opacity="1"><g transform="translate(74.273781, 202.018808)"><g><path d="M 25.796875 -25.796875 L 25.796875 -10.84375 C 25.796875 -7.425781 24.738281 -4.710938 22.625 -2.703125 C 20.519531 -0.703125 17.660156 0.296875 14.046875 0.296875 C 10.410156 0.296875 7.515625 -0.703125 5.359375 -2.703125 C 3.210938 -4.710938 2.140625 -7.425781 2.140625 -10.84375 L 2.140625 -25.796875 L 8.703125 -25.796875 L 8.703125 -10.84375 C 8.703125 -9.113281 9.195312 -7.738281 10.1875 -6.71875 C 11.1875 -5.707031 12.484375 -5.203125 14.078125 -5.203125 C 15.648438 -5.203125 16.910156 -5.703125 17.859375 -6.703125 C 18.804688 -7.710938 19.28125 -9.09375 19.28125 -10.84375 L 19.28125 -25.796875 Z M 25.796875 -25.796875 "/></g></g></g><g fill="#000000" fill-opacity="1"><g transform="translate(100.113892, 202.018808)"><g><path d="M 15.546875 -20.15625 C 17.734375 -20.15625 19.488281 -19.460938 20.8125 -18.078125 C 22.144531 -16.691406 22.8125 -14.84375 22.8125 -12.53125 L 22.8125 0 L 16.46875 0 L 16.46875 -10.765625 C 16.46875 -11.921875 16.15625 -12.832031 15.53125 -13.5 C 14.90625 -14.175781 14.050781 -14.515625 12.96875 -14.515625 C 11.84375 -14.515625 10.914062 -14.144531 10.1875 -13.40625 C 9.46875 -12.675781 9.046875 -11.707031 8.921875 -10.5 L 8.921875 0 L 2.546875 0 L 2.546875 -19.859375 L 8.921875 -19.859375 L 8.921875 -16.625 C 10.316406 -18.9375 12.523438 -20.113281 15.546875 -20.15625 Z M 15.546875 -20.15625 "/></g></g></g><g fill="#000000" fill-opacity="1"><g transform="translate(122.820725, 202.018808)"><g><path d="M 3.328125 -28 C 3.960938 -28.625 4.769531 -28.9375 5.75 -28.9375 C 6.726562 -28.9375 7.53125 -28.625 8.15625 -28 C 8.789062 -27.375 9.109375 -26.566406 9.109375 -25.578125 C 9.109375 -24.597656 8.789062 -23.785156 8.15625 -23.140625 C 7.53125 -22.503906 6.726562 -22.1875 5.75 -22.1875 C 4.769531 -22.1875 3.960938 -22.503906 3.328125 -23.140625 C 2.703125 -23.785156 2.390625 -24.597656 2.390625 -25.578125 C 2.390625 -26.566406 2.703125 -27.375 3.328125 -28 Z M 8.890625 0 L 2.546875 0 L 2.546875 -19.859375 L 8.890625 -19.859375 Z M 8.890625 0 "/></g></g></g><g fill="#ffffff" fill-opacity="1"><g transform="translate(149.433129, 202.012935)"><g><path d="M 14.671875 -26.015625 C 16.585938 -26.015625 18.472656 -25.617188 20.328125 -24.828125 C 22.179688 -24.046875 23.757812 -22.992188 25.0625 -21.671875 L 21.265625 -17.171875 C 20.429688 -18.203125 19.429688 -19.019531 18.265625 -19.625 C 17.097656 -20.226562 15.9375 -20.53125 14.78125 -20.53125 C 12.738281 -20.53125 11.03125 -19.8125 9.65625 -18.375 C 8.28125 -16.9375 7.59375 -15.160156 7.59375 -13.046875 C 7.59375 -10.878906 8.28125 -9.070312 9.65625 -7.625 C 11.03125 -6.175781 12.738281 -5.453125 14.78125 -5.453125 C 15.863281 -5.453125 16.988281 -5.722656 18.15625 -6.265625 C 19.320312 -6.804688 20.359375 -7.546875 21.265625 -8.484375 L 25.09375 -4.421875 C 23.695312 -2.992188 22.046875 -1.847656 20.140625 -0.984375 C 18.234375 -0.128906 16.335938 0.296875 14.453125 0.296875 C 10.566406 0.296875 7.332031 -0.96875 4.75 -3.5 C 2.175781 -6.03125 0.890625 -9.1875 0.890625 -12.96875 C 0.890625 -16.6875 2.203125 -19.789062 4.828125 -22.28125 C 7.453125 -24.769531 10.734375 -26.015625 14.671875 -26.015625 Z M 14.671875 -26.015625 "/></g></g></g><g fill="#ffffff" fill-opacity="1"><g transform="translate(172.840341, 202.012935)"><g><path d="M 21.890625 -19.859375 L 21.890625 0 L 15.515625 0 L 15.515625 -3.28125 C 14.160156 -0.914062 12.007812 0.265625 9.0625 0.265625 C 6.90625 0.265625 5.179688 -0.421875 3.890625 -1.796875 C 2.597656 -3.179688 1.953125 -5.023438 1.953125 -7.328125 L 1.953125 -19.859375 L 8.328125 -19.859375 L 8.328125 -9.140625 C 8.328125 -7.960938 8.628906 -7.035156 9.234375 -6.359375 C 9.835938 -5.679688 10.640625 -5.34375 11.640625 -5.34375 C 12.847656 -5.363281 13.796875 -5.8125 14.484375 -6.6875 C 15.171875 -7.5625 15.515625 -8.6875 15.515625 -10.0625 L 15.515625 -19.859375 Z M 21.890625 -19.859375 "/></g></g></g><g fill="#ffffff" fill-opacity="1"><g transform="translate(195.178555, 202.012935)"><g><path d="M 15.546875 -20.15625 C 17.734375 -20.15625 19.488281 -19.460938 20.8125 -18.078125 C 22.144531 -16.691406 22.8125 -14.84375 22.8125 -12.53125 L 22.8125 0 L 16.46875 0 L 16.46875 -10.765625 C 16.46875 -11.921875 16.15625 -12.832031 15.53125 -13.5 C 14.90625 -14.175781 14.050781 -14.515625 12.96875 -14.515625 C 11.84375 -14.515625 10.914062 -14.144531 10.1875 -13.40625 C 9.46875 -12.675781 9.046875 -11.707031 8.921875 -10.5 L 8.921875 0 L 2.546875 0 L 2.546875 -19.859375 L 8.921875 -19.859375 L 8.921875 -16.625 C 10.316406 -18.9375 12.523438 -20.113281 15.546875 -20.15625 Z M 15.546875 -20.15625 "/></g></g></g><g fill="#ffffff" fill-opacity="1"><g transform="translate(217.885386, 202.012935)"><g><path d="M 21.53125 -19.859375 L 21.53125 -1.8125 C 21.53125 0.988281 20.539062 3.222656 18.5625 4.890625 C 16.582031 6.566406 13.984375 7.40625 10.765625 7.40625 C 7.472656 7.40625 4.523438 6.535156 1.921875 4.796875 L 4.125 0.484375 C 6.039062 1.804688 8.09375 2.46875 10.28125 2.46875 C 11.800781 2.46875 13 2.097656 13.875 1.359375 C 14.75 0.628906 15.1875 -0.363281 15.1875 -1.625 L 15.1875 -3.71875 C 13.832031 -1.945312 11.925781 -1.0625 9.46875 -1.0625 C 6.9375 -1.0625 4.878906 -1.945312 3.296875 -3.71875 C 1.710938 -5.488281 0.921875 -7.8125 0.921875 -10.6875 C 0.921875 -13.488281 1.691406 -15.753906 3.234375 -17.484375 C 4.785156 -19.222656 6.816406 -20.09375 9.328125 -20.09375 C 11.859375 -20.113281 13.8125 -19.226562 15.1875 -17.4375 L 15.1875 -19.859375 Z M 11.0625 -5.671875 C 12.289062 -5.671875 13.285156 -6.117188 14.046875 -7.015625 C 14.804688 -7.910156 15.1875 -9.070312 15.1875 -10.5 C 15.1875 -11.945312 14.804688 -13.117188 14.046875 -14.015625 C 13.285156 -14.921875 12.289062 -15.375 11.0625 -15.375 C 9.800781 -15.375 8.785156 -14.921875 8.015625 -14.015625 C 7.242188 -13.117188 6.859375 -11.945312 6.859375 -10.5 C 6.859375 -9.070312 7.242188 -7.910156 8.015625 -7.015625 C 8.785156 -6.117188 9.800781 -5.671875 11.0625 -5.671875 Z M 11.0625 -5.671875 "/></g></g></g><g fill="#ffffff" fill-opacity="1"><g transform="translate(239.633805, 202.012935)"><g><path d="M 2.578125 -25.796875 L 13.671875 -25.796875 C 17.722656 -25.796875 21.019531 -24.601562 23.5625 -22.21875 C 26.113281 -19.84375 27.390625 -16.738281 27.390625 -12.90625 C 27.390625 -9.09375 26.097656 -5.988281 23.515625 -3.59375 C 20.929688 -1.195312 17.566406 0 13.421875 0 L 2.578125 0 Z M 9.140625 -20.5625 L 9.140625 -5.234375 L 13.828125 -5.234375 C 15.835938 -5.234375 17.488281 -5.9375 18.78125 -7.34375 C 20.070312 -8.757812 20.71875 -10.597656 20.71875 -12.859375 C 20.71875 -15.117188 20.039062 -16.96875 18.6875 -18.40625 C 17.332031 -19.84375 15.613281 -20.5625 13.53125 -20.5625 Z M 9.140625 -20.5625 "/></g></g></g><g fill="#ffffff" fill-opacity="1"><g transform="translate(265.805675, 202.012935)"><g><path d="M 3.328125 -28 C 3.960938 -28.625 4.769531 -28.9375 5.75 -28.9375 C 6.726562 -28.9375 7.53125 -28.625 8.15625 -28 C 8.789062 -27.375 9.109375 -26.566406 9.109375 -25.578125 C 9.109375 -24.597656 8.789062 -23.785156 8.15625 -23.140625 C 7.53125 -22.503906 6.726562 -22.1875 5.75 -22.1875 C 4.769531 -22.1875 3.960938 -22.503906 3.328125 -23.140625 C 2.703125 -23.785156 2.390625 -24.597656 2.390625 -25.578125 C 2.390625 -26.566406 2.703125 -27.375 3.328125 -28 Z M 8.890625 0 L 2.546875 0 L 2.546875 -19.859375 L 8.890625 -19.859375 Z M 8.890625 0 "/></g></g></g></svg>